<svg xmlns="http://www.w3.org/2000/svg" xmlns:xlink="http://www.w3.org/1999/xlink" version="1.1" x="0px" y="0px" viewBox="0 0 100 100" enable-background="new 0 0 100 100" xml:space="preserve"><path fill="#fff" d="M91.115,38.273c2.486,0,3.885-2.75,3.885-3.551c0-0.807-1.603-3.218-4.757-3.218  c-3.142,0-4.218,2.012-4.218,2.679c0,0,0.204,2.75-1.206,2.75c-1.409,0-3.088-6.898-4.628-10.32  c-1.539-3.417-3.486-6.904-4.219-7.91c-0.742-1.006-3.755-2.744-10.525-2.948c0,0-9.18-0.533-15.411-0.533  c0,0-0.01,0.118-0.032,0.317c-0.033-0.199-0.033-0.317-0.033-0.317c-6.242,0-15.421,0.533-15.421,0.533  c-6.769,0.204-9.783,1.942-10.525,2.948c-0.732,1.006-2.68,4.493-4.219,7.91c-1.539,3.422-3.218,10.32-4.628,10.32  c-1.409,0-1.205-2.75-1.205-2.75c0-0.667-1.066-2.679-4.218-2.679C6.603,31.504,5,33.914,5,34.721c0,0.802,1.409,3.551,3.885,3.551  c2.475,0,2.948,0,2.948,0s0.334,0.872,0,2.012C11.5,41.42,6.539,47.075,6.539,51.273c0,1.878,0,30.16,0,31.531  c0,1.378,1.948,1.975,5.155,1.975c3.218,0,5.23-0.398,5.704-1.469c0.463-1.076,0.399-2.481,0.399-2.481s24.289,0,31.811,0  c0.14,0,0.269-0.027,0.399-0.065c0.118,0.038,0.247,0.065,0.387,0.065c7.522,0,31.811,0,31.811,0s-0.065,1.404,0.398,2.481  c0.474,1.071,2.486,1.469,5.704,1.469c3.207,0,5.155-0.597,5.155-1.975c0-1.372,0-29.653,0-31.531c0-4.014-4.961-9.852-5.295-10.988  c-0.333-1.14,0-2.012,0-2.012S88.64,38.273,91.115,38.273z M17.72,74.189c-1.7,0-3.089-1.383-3.089-3.088  c0-1.706,1.389-3.089,3.089-3.089c1.711,0,3.089,1.383,3.089,3.089C20.809,72.807,19.431,74.189,17.72,74.189z M20.873,50.137  c-1.506,2.804-4.746,3.993-7.232,2.658c-2.486-1.339-3.282-4.697-1.775-7.501c1.507-2.803,4.746-3.992,7.232-2.652  C21.595,43.976,22.38,47.334,20.873,50.137z M66.277,71.101H33.734v-6.532h32.543V71.101z M82.28,74.189  c-1.7,0-3.089-1.383-3.089-3.088c0-1.706,1.388-3.089,3.089-3.089c1.711,0,3.089,1.383,3.089,3.089  C85.368,72.807,83.991,74.189,82.28,74.189z M85.874,52.795c-2.497,1.334-5.736,0.146-7.242-2.658  c-1.507-2.803-0.71-6.161,1.775-7.495c2.486-1.34,5.726-0.151,7.243,2.652C89.156,48.098,88.36,51.456,85.874,52.795z"></path></svg>
