<?xml version="1.0" encoding="UTF-8"?>
<svg width="135px" height="105px" viewBox="0 0 135 105" version="1.1" xmlns="http://www.w3.org/2000/svg" xmlns:xlink="http://www.w3.org/1999/xlink" style="background: #E0E0E0;">
    <!-- Generator: Sketch 48.2 (47327) - http://www.bohemiancoding.com/sketch -->
    <title>Artboard</title>
    <desc>Created with Sketch.</desc>
    <defs></defs>
    <g id="Page-1" stroke="none" stroke-width="1" fill="none" fill-rule="evenodd">
        <g id="Artboard" fill="#FFFFFF" fill-rule="nonzero">
            <g id="carIcon" transform="translate(22.500000, 17.500000)">
                <path d="M86.115,23.273 C88.601,23.273 90,20.523 90,19.722 C90,18.915 88.397,16.504 85.243,16.504 C82.101,16.504 81.025,18.516 81.025,19.183 C81.025,19.183 81.229,21.933 79.819,21.933 C78.41,21.933 76.731,15.035 75.191,11.613 C73.652,8.196 71.705,4.709 70.972,3.703 C70.23,2.697 67.217,0.959 60.447,0.755 C60.447,0.755 51.267,0.222 45.036,0.222 C45.036,0.222 45.026,0.34 45.004,0.539 C44.971,0.34 44.971,0.222 44.971,0.222 C38.729,0.222 29.55,0.755 29.55,0.755 C22.781,0.959 19.767,2.697 19.025,3.703 C18.293,4.709 16.345,8.196 14.806,11.613 C13.267,15.035 11.588,21.933 10.178,21.933 C8.769,21.933 8.973,19.183 8.973,19.183 C8.973,18.516 7.907,16.504 4.755,16.504 C1.603,16.504 0,18.914 0,19.721 C0,20.523 1.409,23.272 3.885,23.272 C6.36,23.272 6.833,23.272 6.833,23.272 C6.833,23.272 7.167,24.144 6.833,25.284 C6.5,26.42 1.539,32.075 1.539,36.273 C1.539,38.151 1.539,66.433 1.539,67.804 C1.539,69.182 3.487,69.779 6.694,69.779 C9.912,69.779 11.924,69.381 12.398,68.31 C12.861,67.234 12.797,65.829 12.797,65.829 C12.797,65.829 37.086,65.829 44.608,65.829 C44.748,65.829 44.877,65.802 45.007,65.764 C45.125,65.802 45.254,65.829 45.394,65.829 C52.916,65.829 77.205,65.829 77.205,65.829 C77.205,65.829 77.14,67.233 77.603,68.31 C78.077,69.381 80.089,69.779 83.307,69.779 C86.514,69.779 88.462,69.182 88.462,67.804 C88.462,66.432 88.462,38.151 88.462,36.273 C88.462,32.259 83.501,26.421 83.167,25.285 C82.834,24.145 83.167,23.273 83.167,23.273 C83.167,23.273 83.64,23.273 86.115,23.273 Z M12.72,59.189 C11.02,59.189 9.631,57.806 9.631,56.101 C9.631,54.395 11.02,53.012 12.72,53.012 C14.431,53.012 15.809,54.395 15.809,56.101 C15.809,57.807 14.431,59.189 12.72,59.189 Z M15.873,35.137 C14.367,37.941 11.127,39.13 8.641,37.795 C6.155,36.456 5.359,33.098 6.866,30.294 C8.373,27.491 11.612,26.302 14.098,27.642 C16.595,28.976 17.38,32.334 15.873,35.137 Z M61.277,56.101 L28.734,56.101 L28.734,49.569 L61.277,49.569 L61.277,56.101 Z M77.28,59.189 C75.58,59.189 74.191,57.806 74.191,56.101 C74.191,54.395 75.579,53.012 77.28,53.012 C78.991,53.012 80.369,54.395 80.369,56.101 C80.368,57.807 78.991,59.189 77.28,59.189 Z M80.874,37.795 C78.377,39.129 75.138,37.941 73.632,35.137 C72.125,32.334 72.922,28.976 75.407,27.642 C77.893,26.302 81.133,27.491 82.65,30.294 C84.156,33.098 83.36,36.456 80.874,37.795 Z" id="Shape"></path>
            </g>
        </g>
    </g>
</svg>